#define 2e551d8a03b44603a16e1232bd53d297PSFa935h4XjpjQe9_width 16
#define 2e551d8a03b44603a16e1232bd53d297PSFa935h4XjpjQe9_height 16
static char 2e551d8a03b44603a16e1232bd53d297PSFa935h4XjpjQe9_bits[] = {
  0x80, 0x01, 0xC0, 0x03, 0xDC, 0x3B, 0xFC, 0x3F, 0xFC, 0x3F, 0x3C, 0x1C, 
  0x1E, 0x78, 0x1F, 0xF8, 0x1F, 0xF8, 0x1E, 0x78, 0x3C, 0x1C, 0xFC, 0x3F, 
  0xFC, 0x3F, 0xFC, 0x3F, 0xC0, 0x03, 0x80, 0x01, };
