#define f74dbc787d3c44c2dbc6086eba0bfe14crQ1NtnC4JgGuqRK_width 16
#define f74dbc787d3c44c2dbc6086eba0bfe14crQ1NtnC4JgGuqRK_height 16
static char f74dbc787d3c44c2dbc6086eba0bfe14crQ1NtnC4JgGuqRK_bits[] = {
  0x10, 0x00, 0x30, 0x00, 0x70, 0x00, 0x70, 0x00, 0xF8, 0x00, 0xFC, 0x00, 
  0xFC, 0x04, 0xFE, 0x0C, 0x7F, 0x1C, 0x3F, 0x1C, 0x3F, 0x3E, 0x1F, 0x3F, 
  0x0E, 0x3F, 0x8E, 0x3F, 0xCC, 0x3F, 0xC8, 0x1F, };
