#define 4d55cbb7d09c47ff91418310f508b919pRwxztQUcc8vTBwI_width 16
#define 4d55cbb7d09c47ff91418310f508b919pRwxztQUcc8vTBwI_height 16
static char 4d55cbb7d09c47ff91418310f508b919pRwxztQUcc8vTBwI_bits[] = {
  0xC0, 0x03, 0xE0, 0x07, 0x70, 0x0E, 0x30, 0x0C, 0x30, 0x0C, 0x30, 0x0C, 
  0xFC, 0x3F, 0xFC, 0x3F, 0xFC, 0x3F, 0xFC, 0x3F, 0xFC, 0x3F, 0xFC, 0x3F, 
  0xFC, 0x3F, 0xFC, 0x3F, 0x00, 0x00, 0x00, 0x00, };
