#define 567267959ef94ab0e0f160fe5564f16dplUAObDKwrIRLctr_width 16
#define 567267959ef94ab0e0f160fe5564f16dplUAObDKwrIRLctr_height 16
static char 567267959ef94ab0e0f160fe5564f16dplUAObDKwrIRLctr_bits[] = {
  0x80, 0x01, 0xF0, 0x0F, 0x7C, 0x3F, 0x1F, 0xFF, 0x07, 0xFF, 0x03, 0xFF, 
  0x03, 0xFF, 0x07, 0x7F, 0x06, 0x7F, 0x06, 0x7F, 0x0C, 0x3F, 0x1C, 0x3F, 
  0x38, 0x1F, 0x70, 0x0F, 0xE0, 0x07, 0xC0, 0x03, };
