#define 8e37a1f304034e759275237380e13218a8RWmgbvcCiAAoUt_width 16
#define 8e37a1f304034e759275237380e13218a8RWmgbvcCiAAoUt_height 16
static char 8e37a1f304034e759275237380e13218a8RWmgbvcCiAAoUt_bits[] = {
  0xC0, 0x00, 0xE0, 0x01, 0xE0, 0x01, 0xF0, 0x01, 0xF0, 0x03, 0xF0, 0x03, 
  0x38, 0x07, 0x38, 0x07, 0x3C, 0x0F, 0x3C, 0x0F, 0xFE, 0x0F, 0xFE, 0x1F, 
  0x3E, 0x1F, 0x3F, 0x3F, 0xFF, 0x3F, 0xFF, 0x3F, };
